# xmcd
#
# Track frame offsets:
#	150
#	17345
#	31250
#	44315
#	61570
#	70832
#	82510
#	110017
#
# Disc length: 1658 seconds
#
# Revision: 0
# Processed by: cddbd v1.4PL0 Copyright (c) Steve Scherf et al.
# Submitted via: dBpowerAMP V4.0
#
DISCID=4f067808
DTITLE=Merle Haggard - Amber Waves Of Grain
DYEAR=1900
DGENRE=Country
TTITLE0=Amber Waves Of Grain
TTITLE1=Medley: Tulare Dust/Mama Tried
TTITLE2=The Farmer's Daughter
TTITLE3=Medley: The Okie From Muskogee's Coming Home/Okie From Muskogee
TTITLE4=Gone With The Wind
TTITLE5=I Wish Things Were Simple Again
TTITLE6=Medley: Workin' Man Blues/Always Late
TTITLE7=American Walz
EXTD=
EXTT0=
EXTT1=
EXTT2=
EXTT3=
EXTT4=
EXTT5=
EXTT6=
EXTT7=
PLAYORDER=
